<svg xmlns="http://www.w3.org/2000/svg" xmlns:xlink="http://www.w3.org/1999/xlink" width="106" zoomAndPan="magnify" viewBox="0 0 78.96 79.499999" height="106" preserveAspectRatio="xMidYMid meet" version="1.0"><defs><clipPath id="2fb2602d51"><path d="M 8 16 L 65 16 L 65 72 L 8 72 Z M 8 16 " clip-rule="nonzero"/></clipPath><clipPath id="49c978817d"><path d="M 69.148438 71.46875 L 8.035156 70.894531 L 8.632812 7.546875 L 69.746094 8.121094 Z M 69.148438 71.46875 " clip-rule="nonzero"/></clipPath><clipPath id="b3d49613b5"><path d="M 69.148438 71.46875 L 8.035156 70.894531 L 8.632812 7.546875 L 69.746094 8.121094 Z M 69.148438 71.46875 " clip-rule="nonzero"/></clipPath><clipPath id="cde8abb01e"><path d="M 57 7 L 70 7 L 70 21 L 57 21 Z M 57 7 " clip-rule="nonzero"/></clipPath><clipPath id="c36fa7ed84"><path d="M 69.148438 71.46875 L 8.035156 70.894531 L 8.632812 7.546875 L 69.746094 8.121094 Z M 69.148438 71.46875 " clip-rule="nonzero"/></clipPath><clipPath id="35302b7dcb"><path d="M 69.148438 71.46875 L 8.035156 70.894531 L 8.632812 7.546875 L 69.746094 8.121094 Z M 69.148438 71.46875 " clip-rule="nonzero"/></clipPath><clipPath id="2058bd3673"><path d="M 8 15 L 66 15 L 66 71 L 8 71 Z M 8 15 " clip-rule="nonzero"/></clipPath><clipPath id="4f935ba2ba"><path d="M 69.488281 70.40625 L 8.375 69.828125 L 8.972656 6.480469 L 70.085938 7.058594 Z M 69.488281 70.40625 " clip-rule="nonzero"/></clipPath><clipPath id="1d73f304b4"><path d="M 69.488281 70.40625 L 8.375 69.828125 L 8.972656 6.480469 L 70.085938 7.058594 Z M 69.488281 70.40625 " clip-rule="nonzero"/></clipPath><clipPath id="317dc362fe"><path d="M 58 6 L 70 6 L 70 20 L 58 20 Z M 58 6 " clip-rule="nonzero"/></clipPath><clipPath id="71bd582030"><path d="M 69.488281 70.40625 L 8.375 69.828125 L 8.972656 6.480469 L 70.085938 7.058594 Z M 69.488281 70.40625 " clip-rule="nonzero"/></clipPath><clipPath id="cccc7ef15d"><path d="M 69.488281 70.40625 L 8.375 69.828125 L 8.972656 6.480469 L 70.085938 7.058594 Z M 69.488281 70.40625 " clip-rule="nonzero"/></clipPath></defs><g clip-path="url(#2fb2602d51)"><g clip-path="url(#49c978817d)"><g clip-path="url(#b3d49613b5)"><path fill="#000000" d="M 63.625 16.429688 C 63.757812 16.429688 63.902344 16.457031 64.039062 16.511719 C 64.605469 16.742188 64.886719 17.390625 64.648438 17.96875 C 64.214844 19.046875 63.679688 20.097656 63.078125 21.109375 C 62.761719 21.640625 62.082031 21.8125 61.546875 21.496094 C 61.015625 21.179688 60.84375 20.496094 61.160156 19.964844 C 61.703125 19.054688 62.183594 18.101562 62.582031 17.132812 C 62.765625 16.691406 63.179688 16.425781 63.625 16.429688 Z M 57.917969 24.585938 C 58.21875 24.585938 58.507812 24.710938 58.726562 24.949219 C 59.148438 25.398438 59.117188 26.113281 58.65625 26.519531 C 57.800781 27.304688 56.878906 28.042969 55.914062 28.703125 C 55.410156 29.054688 54.710938 28.925781 54.367188 28.421875 C 54.015625 27.914062 54.144531 27.214844 54.648438 26.871094 C 55.527344 26.269531 56.367188 25.605469 57.144531 24.890625 C 57.371094 24.667969 57.636719 24.582031 57.917969 24.585938 Z M 26.175781 28.710938 C 26.207031 28.710938 26.242188 28.710938 26.285156 28.714844 C 27.300781 28.824219 28.367188 28.96875 29.660156 29.15625 C 30.273438 29.253906 30.679688 29.824219 30.585938 30.425781 C 30.488281 31.039062 29.929688 31.457031 29.316406 31.351562 C 28.070312 31.160156 27.035156 31.015625 26.054688 30.917969 C 25.441406 30.859375 25 30.308594 25.0625 29.695312 C 25.109375 29.125 25.605469 28.707031 26.175781 28.710938 Z M 19.496094 28.695312 C 20.039062 28.699219 20.515625 29.117188 20.589844 29.675781 C 20.660156 30.289062 20.234375 30.84375 19.617188 30.914062 C 18.523438 31.046875 17.507812 31.273438 16.578125 31.597656 C 15.996094 31.792969 15.363281 31.488281 15.15625 30.90625 C 14.960938 30.324219 15.269531 29.691406 15.851562 29.484375 C 16.914062 29.117188 18.085938 28.859375 19.339844 28.703125 C 19.394531 28.691406 19.449219 28.691406 19.496094 28.695312 Z M 49.328125 29.632812 C 49.796875 29.636719 50.226562 29.929688 50.378906 30.402344 C 50.574219 30.984375 50.257812 31.617188 49.664062 31.808594 C 48.546875 32.179688 47.40625 32.457031 46.253906 32.648438 C 45.640625 32.753906 45.074219 32.335938 44.96875 31.734375 C 44.863281 31.128906 45.28125 30.554688 45.886719 30.449219 C 46.914062 30.277344 47.953125 30.019531 48.96875 29.683594 C 49.09375 29.652344 49.203125 29.632812 49.328125 29.632812 Z M 36.085938 30.234375 C 36.140625 30.234375 36.183594 30.234375 36.242188 30.246094 C 37.445312 30.425781 38.511719 30.546875 39.492188 30.632812 C 40.105469 30.683594 40.558594 31.222656 40.507812 31.835938 C 40.457031 32.449219 39.929688 32.910156 39.304688 32.851562 C 38.269531 32.761719 37.167969 32.640625 35.917969 32.449219 C 35.304688 32.355469 34.886719 31.792969 34.972656 31.179688 C 35.054688 30.636719 35.539062 30.226562 36.085938 30.234375 Z M 11.019531 33.375 C 11.210938 33.378906 11.410156 33.425781 11.585938 33.535156 C 12.121094 33.855469 12.28125 34.535156 11.964844 35.070312 C 11.488281 35.855469 11.121094 36.765625 10.855469 37.855469 C 10.703125 38.457031 10.097656 38.820312 9.507812 38.667969 C 8.910156 38.519531 8.546875 37.914062 8.695312 37.324219 C 9.011719 36.03125 9.464844 34.890625 10.054688 33.925781 C 10.257812 33.570312 10.640625 33.371094 11.019531 33.375 Z M 9.253906 43.117188 C 9.835938 43.121094 10.320312 43.582031 10.359375 44.175781 C 10.417969 45.234375 10.542969 46.308594 10.730469 47.355469 C 10.835938 47.960938 10.429688 48.546875 9.828125 48.652344 C 9.222656 48.757812 8.636719 48.351562 8.53125 47.75 C 8.332031 46.609375 8.195312 45.449219 8.128906 44.289062 C 8.101562 43.675781 8.5625 43.144531 9.1875 43.117188 C 9.210938 43.117188 9.234375 43.117188 9.253906 43.117188 Z M 11.574219 52.828125 C 11.996094 52.832031 12.394531 53.082031 12.582031 53.496094 C 13.019531 54.480469 13.511719 55.433594 14.046875 56.355469 C 14.367188 56.882812 14.191406 57.570312 13.65625 57.878906 C 13.128906 58.183594 12.4375 58.023438 12.128906 57.484375 C 11.539062 56.496094 11.011719 55.457031 10.542969 54.390625 C 10.292969 53.832031 10.554688 53.164062 11.113281 52.925781 C 11.269531 52.847656 11.425781 52.828125 11.574219 52.828125 Z M 17.203125 61.066406 C 17.484375 61.070312 17.761719 61.171875 17.980469 61.386719 C 18.734375 62.128906 19.539062 62.839844 20.394531 63.496094 C 20.878906 63.867188 20.972656 64.570312 20.601562 65.058594 C 20.230469 65.546875 19.527344 65.640625 19.039062 65.265625 C 18.121094 64.554688 17.234375 63.789062 16.417969 62.976562 C 15.976562 62.550781 15.980469 61.835938 16.410156 61.40625 C 16.625 61.171875 16.914062 61.066406 17.203125 61.066406 Z M 25.472656 66.652344 C 25.617188 66.65625 25.761719 66.691406 25.90625 66.746094 C 26.882812 67.179688 27.90625 67.546875 28.917969 67.847656 C 29.507812 68.019531 29.847656 68.648438 29.660156 69.238281 C 29.488281 69.824219 28.863281 70.164062 28.273438 69.980469 C 27.171875 69.648438 26.070312 69.246094 25.003906 68.789062 C 24.4375 68.539062 24.175781 67.890625 24.425781 67.324219 C 24.621094 66.890625 25.035156 66.648438 25.472656 66.652344 Z M 38.53125 68.875 C 39.097656 68.878906 39.585938 69.320312 39.636719 69.898438 C 39.6875 70.511719 39.222656 71.054688 38.609375 71.09375 C 37.449219 71.183594 36.277344 71.207031 35.128906 71.148438 C 34.515625 71.121094 34.042969 70.59375 34.070312 69.980469 C 34.097656 69.367188 34.617188 68.871094 35.242188 68.921875 C 36.300781 68.976562 37.371094 68.953125 38.441406 68.871094 C 38.464844 68.882812 38.496094 68.875 38.53125 68.875 Z M 38.53125 68.875 " fill-opacity="1" fill-rule="nonzero"/></g></g></g><g clip-path="url(#cde8abb01e)"><g clip-path="url(#c36fa7ed84)"><g clip-path="url(#35302b7dcb)"><path fill="#000000" d="M 67.242188 7.890625 C 67.398438 7.890625 67.5625 7.925781 67.707031 7.992188 C 68.050781 8.164062 68.292969 8.488281 68.335938 8.871094 L 69.5 19.082031 C 69.570312 19.699219 69.132812 20.25 68.519531 20.3125 C 67.902344 20.394531 67.351562 19.945312 67.289062 19.332031 L 66.332031 10.890625 L 59.453125 15.253906 C 58.9375 15.582031 58.25 15.433594 57.917969 14.914062 C 57.589844 14.398438 57.742188 13.710938 58.269531 13.378906 L 66.648438 8.0625 C 66.816406 7.941406 67.027344 7.886719 67.242188 7.890625 Z M 67.242188 7.890625 " fill-opacity="1" fill-rule="nonzero"/></g></g></g><g clip-path="url(#2058bd3673)"><g clip-path="url(#4f935ba2ba)"><g clip-path="url(#1d73f304b4)"><path fill="#e90000" d="M 63.964844 15.367188 C 64.101562 15.367188 64.246094 15.390625 64.378906 15.449219 C 64.945312 15.675781 65.226562 16.324219 64.988281 16.902344 C 64.554688 17.980469 64.019531 19.035156 63.421875 20.042969 C 63.101562 20.578125 62.421875 20.75 61.890625 20.429688 C 61.355469 20.113281 61.183594 19.433594 61.5 18.898438 C 62.046875 17.988281 62.523438 17.035156 62.921875 16.070312 C 63.105469 15.625 63.519531 15.359375 63.964844 15.367188 Z M 58.257812 23.519531 C 58.558594 23.523438 58.847656 23.648438 59.066406 23.882812 C 59.488281 24.332031 59.457031 25.046875 58.996094 25.457031 C 58.144531 26.238281 57.222656 26.976562 56.257812 27.636719 C 55.75 27.988281 55.050781 27.859375 54.707031 27.355469 C 54.355469 26.851562 54.484375 26.148438 54.992188 25.808594 C 55.867188 25.203125 56.710938 24.542969 57.484375 23.824219 C 57.710938 23.601562 57.980469 23.515625 58.257812 23.519531 Z M 26.515625 27.648438 C 26.546875 27.648438 26.582031 27.648438 26.625 27.648438 C 27.640625 27.757812 28.710938 27.902344 30 28.09375 C 30.613281 28.1875 31.019531 28.761719 30.925781 29.363281 C 30.832031 29.972656 30.269531 30.390625 29.65625 30.285156 C 28.410156 30.097656 27.375 29.953125 26.394531 29.855469 C 25.78125 29.792969 25.339844 29.242188 25.402344 28.628906 C 25.453125 28.0625 25.945312 27.640625 26.515625 27.648438 Z M 19.835938 27.628906 C 20.382812 27.632812 20.855469 28.050781 20.929688 28.609375 C 21.003906 29.222656 20.574219 29.777344 19.960938 29.847656 C 18.863281 29.984375 17.847656 30.207031 16.917969 30.535156 C 16.335938 30.730469 15.707031 30.421875 15.5 29.839844 C 15.304688 29.257812 15.609375 28.625 16.191406 28.417969 C 17.253906 28.050781 18.429688 27.792969 19.679688 27.636719 C 19.734375 27.628906 19.789062 27.628906 19.835938 27.628906 Z M 49.667969 28.566406 C 50.136719 28.574219 50.570312 28.867188 50.71875 29.335938 C 50.914062 29.917969 50.597656 30.550781 50.003906 30.746094 C 48.886719 31.113281 47.746094 31.394531 46.59375 31.582031 C 45.980469 31.6875 45.417969 31.269531 45.308594 30.667969 C 45.203125 30.066406 45.621094 29.488281 46.226562 29.382812 C 47.253906 29.214844 48.292969 28.957031 49.3125 28.621094 C 49.433594 28.589844 49.546875 28.566406 49.667969 28.566406 Z M 36.425781 29.167969 C 36.480469 29.167969 36.527344 29.167969 36.582031 29.179688 C 37.785156 29.359375 38.851562 29.480469 39.835938 29.566406 C 40.445312 29.617188 40.898438 30.15625 40.847656 30.769531 C 40.796875 31.382812 40.269531 31.847656 39.644531 31.785156 C 38.609375 31.699219 37.507812 31.574219 36.257812 31.386719 C 35.648438 31.289062 35.230469 30.730469 35.3125 30.117188 C 35.394531 29.570312 35.878906 29.164062 36.425781 29.167969 Z M 11.359375 32.3125 C 11.550781 32.3125 11.75 32.359375 11.925781 32.472656 C 12.460938 32.789062 12.621094 33.472656 12.304688 34.003906 C 11.828125 34.789062 11.460938 35.703125 11.195312 36.792969 C 11.046875 37.394531 10.4375 37.753906 9.851562 37.605469 C 9.25 37.453125 8.886719 36.847656 9.039062 36.257812 C 9.351562 34.96875 9.808594 33.824219 10.394531 32.859375 C 10.601562 32.503906 10.980469 32.308594 11.359375 32.3125 Z M 9.597656 42.050781 C 10.175781 42.058594 10.664062 42.519531 10.699219 43.109375 C 10.757812 44.171875 10.882812 45.242188 11.074219 46.292969 C 11.179688 46.894531 10.769531 47.484375 10.167969 47.589844 C 9.566406 47.695312 8.976562 47.289062 8.871094 46.683594 C 8.671875 45.542969 8.535156 44.382812 8.46875 43.222656 C 8.441406 42.609375 8.90625 42.078125 9.527344 42.050781 C 9.550781 42.050781 9.574219 42.050781 9.597656 42.050781 Z M 11.914062 51.765625 C 12.335938 51.769531 12.734375 52.015625 12.921875 52.433594 C 13.359375 53.417969 13.851562 54.371094 14.390625 55.289062 C 14.707031 55.816406 14.535156 56.507812 13.996094 56.8125 C 13.46875 57.121094 12.777344 56.957031 12.472656 56.417969 C 11.878906 55.433594 11.351562 54.390625 10.882812 53.328125 C 10.632812 52.765625 10.894531 52.101562 11.457031 51.859375 C 11.613281 51.785156 11.769531 51.761719 11.914062 51.765625 Z M 17.546875 60.003906 C 17.824219 60.003906 18.101562 60.109375 18.324219 60.320312 C 19.074219 61.066406 19.882812 61.777344 20.734375 62.429688 C 21.222656 62.804688 21.316406 63.507812 20.941406 63.992188 C 20.570312 64.480469 19.867188 64.574219 19.378906 64.203125 C 18.460938 63.492188 17.574219 62.722656 16.757812 61.914062 C 16.316406 61.484375 16.324219 60.773438 16.75 60.339844 C 16.964844 60.109375 17.253906 60 17.546875 60.003906 Z M 25.8125 65.589844 C 25.957031 65.589844 26.101562 65.625 26.246094 65.683594 C 27.222656 66.117188 28.246094 66.480469 29.257812 66.78125 C 29.847656 66.953125 30.1875 67.582031 30.003906 68.171875 C 29.828125 68.761719 29.203125 69.101562 28.613281 68.917969 C 27.511719 68.582031 26.410156 68.183594 25.34375 67.726562 C 24.777344 67.476562 24.515625 66.828125 24.769531 66.261719 C 24.960938 65.828125 25.375 65.585938 25.8125 65.589844 Z M 38.871094 67.808594 C 39.441406 67.8125 39.925781 68.253906 39.976562 68.835938 C 40.027344 69.449219 39.566406 69.988281 38.949219 70.027344 C 37.789062 70.117188 36.621094 70.140625 35.472656 70.085938 C 34.859375 70.058594 34.382812 69.527344 34.410156 68.914062 C 34.441406 68.300781 34.957031 67.804688 35.582031 67.855469 C 36.640625 67.910156 37.710938 67.886719 38.78125 67.808594 C 38.804688 67.820312 38.839844 67.808594 38.871094 67.808594 Z M 38.871094 67.808594 " fill-opacity="1" fill-rule="nonzero"/></g></g></g><g clip-path="url(#317dc362fe)"><g clip-path="url(#71bd582030)"><g clip-path="url(#cccc7ef15d)"><path fill="#e90000" d="M 67.582031 6.824219 C 67.738281 6.824219 67.90625 6.859375 68.050781 6.929688 C 68.394531 7.097656 68.636719 7.425781 68.675781 7.804688 L 69.839844 18.019531 C 69.914062 18.632812 69.472656 19.1875 68.859375 19.246094 C 68.246094 19.332031 67.691406 18.878906 67.628906 18.265625 L 66.671875 9.828125 L 59.796875 14.1875 C 59.277344 14.519531 58.589844 14.367188 58.257812 13.851562 C 57.929688 13.335938 58.082031 12.644531 58.609375 12.316406 L 66.988281 6.996094 C 67.15625 6.875 67.371094 6.820312 67.582031 6.824219 Z M 67.582031 6.824219 " fill-opacity="1" fill-rule="nonzero"/></g></g></g></svg>