<svg xmlns="http://www.w3.org/2000/svg" xmlns:xlink="http://www.w3.org/1999/xlink" width="106" zoomAndPan="magnify" viewBox="0 0 78.96 79.499999" height="106" preserveAspectRatio="xMidYMid meet" version="1.0"><defs><clipPath id="ae6287d8f7"><path d="M 14.03125 3 L 64 3 L 64 79 L 14.03125 79 Z M 14.03125 3 " clip-rule="nonzero"/></clipPath></defs><g clip-path="url(#ae6287d8f7)"><path fill="#fdf3dd" d="M 21.664062 4.132812 C 21.664062 4.132812 25.351562 0.00390625 33.484375 9.636719 C 41.621094 19.265625 40.480469 46.765625 33.484375 41.265625 C 26.488281 35.765625 18.195312 17.875 21.664062 4.132812 Z M 55.023438 61.949219 C 55.023438 61.949219 49.84375 63.925781 47.046875 51.625 C 44.253906 39.324219 57.925781 15.4375 61.609375 23.535156 C 65.292969 31.636719 64.421875 51.320312 55.023438 61.949219 Z M 14.03125 55.308594 C 14.03125 55.308594 14.597656 49.792969 26.847656 52.835938 C 39.09375 55.878906 54.238281 78.859375 45.359375 78.484375 C 36.476562 78.109375 19.261719 68.5 14.03125 55.308594 Z M 14.03125 55.308594 " fill-opacity="1" fill-rule="nonzero"/></g></svg>